<svg xmlns="http://www.w3.org/2000/svg" xmlns:xlink="http://www.w3.org/1999/xlink" xmlns:lucid="lucid" width="1191" height="820.5"><g transform="translate(1340.5 41)" lucid:page-tab-id="0_0"><path d="M-460 16a16 16 0 0 1 16-16h168a16 16 0 0 1 16 16v107a16 16 0 0 1-16 16h-168a16 16 0 0 1-16-16z" fill="#fff"/><path d="M-460 16a16 16 0 0 1 16-16h168a16 16 0 0 1 16 16v24h-200z" fill="#979ea8"/><path d="M-460 40h200v34h-200z" fill="#fff"/><path d="M-460 73h200v34h-200z" fill="#e6e6e6"/><path d="M-460 106h200v17a16 16 0 0 1-16 16h-168a16 16 0 0 1-16-16z" fill="#fff"/><path d="M-459.5 40h199-199zM-460 16a16 16 0 0 1 16-16h168a16 16 0 0 1 16 16v107a16 16 0 0 1-16 16h-168a16 16 0 0 1-16-16z" stroke="#000" fill="none"/><use xlink:href="#a" transform="matrix(1,0,0,1,-450,0) translate(57.47825520833334 27.61432291666667)"/><use xlink:href="#b" transform="matrix(1,0,0,1,-455,42.5) translate(87.71822916666667 21.61432291666667)"/><use xlink:href="#c" transform="matrix(1,0,0,1,-455,75.5) translate(72.06888020833334 21.61432291666667)"/><use xlink:href="#d" transform="matrix(1,0,0,1,-455,108.5) translate(59.9796875 21.61432291666667)"/><path d="M-219.5 729.6h57.5a12 12 0 0 0 12-12V408.1a12 12 0 0 0-12-12h-77.5" stroke="#3a414a" fill="none"/><path d="M-259.28 729.6h20m-20 10l20-10m-20-10l20 10m20 0c0 5.52-4.47 10-10 10-5.52 0-10-4.48-10-10s4.48-10 10-10c5.53 0 10 4.48 10 10z" stroke="#3a414a" fill="#fff"/><path d="M-259.5 396.1h20m0 10v-20" stroke="#3a414a" fill="none"/><path d="M-460 356a16 16 0 0 1 16-16h168a16 16 0 0 1 16 16v239a16 16 0 0 1-16 16h-168a16 16 0 0 1-16-16z" fill="#fff"/><path d="M-460 356a16 16 0 0 1 16-16h168a16 16 0 0 1 16 16v24h-200z" fill="#979ea8"/><path d="M-460 380h200v34h-200z" fill="#fff"/><path d="M-460 413h200v34h-200z" fill="#e6e6e6"/><path d="M-460 446h200v34h-200z" fill="#fff"/><path d="M-460 479h200v34h-200z" fill="#e6e6e6"/><path d="M-460 512h200v34h-200z" fill="#fff"/><path d="M-460 545h200v34h-200z" fill="#e6e6e6"/><path d="M-460 578h200v17a16 16 0 0 1-16 16h-168a16 16 0 0 1-16-16z" fill="#fff"/><path d="M-459.5 380h199-199zM-460 356a16 16 0 0 1 16-16h168a16 16 0 0 1 16 16v239a16 16 0 0 1-16 16h-168a16 16 0 0 1-16-16z" stroke="#000" fill="none"/><use xlink:href="#e" transform="matrix(1,0,0,1,-450,340) translate(55.26223958333334 27.61432291666667)"/><use xlink:href="#f" transform="matrix(1,0,0,1,-455,382.5) translate(87.71822916666667 21.61432291666667)"/><use xlink:href="#g" transform="matrix(1,0,0,1,-455,415.5) translate(78.13567708333333 21.61432291666667)"/><use xlink:href="#h" transform="matrix(1,0,0,1,-455,448.5) translate(68.746875 21.61432291666667)"/><use xlink:href="#i" transform="matrix(1,0,0,1,-455,481.5) translate(76.88841145833335 21.61432291666667)"/><use xlink:href="#j" transform="matrix(1,0,0,1,-455,514.5) translate(56.93216145833334 21.61432291666667)"/><use xlink:href="#k" transform="matrix(1,0,0,1,-455,514.5) translate(97.80533854166667 21.61432291666667)"/><use xlink:href="#l" transform="matrix(1,0,0,1,-455,547.5) translate(56.310546875 21.61432291666667)"/><use xlink:href="#m" transform="matrix(1,0,0,1,-455,580.5) translate(71.33424479166666 21.61432291666667)"/><path d="M-679.5 262.68H-532a12 12 0 0 1 12 12v409.75a12 12 0 0 0 12 12h27.5M-699.5 262.68h20m0 10v-20M-460.5 696.43h-20m0-10v20M-480.5 56.44H-508a12 12 0 0 0-12 12v149.08a12 12 0 0 1-12 12h-127.5M-460.5 56.44h-20m0-10v20" stroke="#3a414a" fill="none"/><path d="M-699.28 229.52h20m-20 10l20-10m-20-10l20 10m20 0c0 5.52-4.47 10-10 10-5.52 0-10-4.48-10-10 0-5.53 4.48-10 10-10 5.53 0 10 4.47 10 10z" stroke="#3a414a" fill="#fff"/><path d="M-460 656a16 16 0 0 1 16-16h168a16 16 0 0 1 16 16v107a16 16 0 0 1-16 16h-168a16 16 0 0 1-16-16z" fill="#fff"/><path d="M-460 656a16 16 0 0 1 16-16h168a16 16 0 0 1 16 16v24h-200z" fill="#979ea8"/><path d="M-460 680h200v34h-200z" fill="#fff"/><path d="M-460 713h200v34h-200z" fill="#e6e6e6"/><path d="M-460 746h200v17a16 16 0 0 1-16 16h-168a16 16 0 0 1-16-16z" fill="#fff"/><path d="M-459.5 680h199-199zM-460 656a16 16 0 0 1 16-16h168a16 16 0 0 1 16 16v107a16 16 0 0 1-16 16h-168a16 16 0 0 1-16-16z" stroke="#000" fill="none"/><use xlink:href="#n" transform="matrix(1,0,0,1,-450,640) translate(53.36106770833334 27.61432291666667)"/><use xlink:href="#f" transform="matrix(1,0,0,1,-455,682.5) translate(87.71822916666667 21.61432291666667)"/><use xlink:href="#o" transform="matrix(1,0,0,1,-455,715.5) translate(67.85885416666667 21.61432291666667)"/><use xlink:href="#p" transform="matrix(1,0,0,1,-455,748.5) translate(37.04856770833332 21.61432291666667)"/><use xlink:href="#q" transform="matrix(1,0,0,1,-455,748.5) translate(116.84934895833334 21.61432291666667)"/><path d="M-900 156a16 16 0 0 1 16-16h168a16 16 0 0 1 16 16v140a16 16 0 0 1-16 16h-168a16 16 0 0 1-16-16z" fill="#fff"/><path d="M-900 156a16 16 0 0 1 16-16h168a16 16 0 0 1 16 16v24h-200z" fill="#979ea8"/><path d="M-900 180h200v34h-200z" fill="#fff"/><path d="M-900 213h200v34h-200z" fill="#e6e6e6"/><path d="M-900 246h200v34h-200z" fill="#fff"/><path d="M-900 279h200v17a16 16 0 0 1-16 16h-168a16 16 0 0 1-16-16z" fill="#e6e6e6"/><path d="M-899.5 180h199-199zM-900 156a16 16 0 0 1 16-16h168a16 16 0 0 1 16 16v140a16 16 0 0 1-16 16h-168a16 16 0 0 1-16-16z" stroke="#000" fill="none"/><use xlink:href="#r" transform="matrix(1,0,0,1,-890,140) translate(49.27213541666667 27.61432291666667)"/><use xlink:href="#s" transform="matrix(1,0,0,1,-890,140) translate(91.00911458333334 27.61432291666667)"/><use xlink:href="#f" transform="matrix(1,0,0,1,-895,182.5) translate(87.71822916666667 21.61432291666667)"/><use xlink:href="#t" transform="matrix(1,0,0,1,-895,215.5) translate(51.967317708333326 21.61432291666667)"/><use xlink:href="#u" transform="matrix(1,0,0,1,-895,215.5) translate(121.66080729166669 21.61432291666667)"/><use xlink:href="#v" transform="matrix(1,0,0,1,-895,248.5) translate(47.85013020833334 21.61432291666667)"/><use xlink:href="#w" transform="matrix(1,0,0,1,-895,248.5) translate(125.77799479166667 21.61432291666667)"/><use xlink:href="#x" transform="matrix(1,0,0,1,-895,281.5) translate(56.080468749999994 21.61432291666667)"/><use xlink:href="#q" transform="matrix(1,0,0,1,-895,281.5) translate(97.81744791666668 21.61432291666667)"/><path d="M-480.5 56.44H-568a12 12 0 0 0-12 12V537.5a12 12 0 0 1-12 12h-67.5M-460.5 56.44h-20m0-10v20" stroke="#3a414a" fill="none"/><path d="M-699.28 549.52h20m-20 10l20-10m-20-10l20 10m20 0c0 5.52-4.47 10-10 10-5.52 0-10-4.48-10-10s4.48-10 10-10c5.53 0 10 4.48 10 10z" stroke="#3a414a" fill="#fff"/><path d="M-480.5 696.43H-568a12 12 0 0 1-12-12v-89.75a12 12 0 0 0-12-12h-87.5M-460.5 696.43h-20m0-10v20M-699.5 582.68h20m0 10v-20M-800 332.5V420M-800 312.5v20m-10 0h20" stroke="#3a414a" fill="none"/><path d="M-800 459.5v-20m10 10h-20m20-20c0 5.52-4.48 10-10 10s-10-4.48-10-10 4.48-10 10-10 10 4.48 10 10z" stroke="#3a414a" fill="#fff"/><path d="M-1260 343.42a16 16 0 0 1 16-16h168a16 16 0 0 1 16 16v173a16 16 0 0 1-16 16h-168a16 16 0 0 1-16-16z" fill="#fff"/><path d="M-1260 343.42a16 16 0 0 1 16-16h168a16 16 0 0 1 16 16v24h-200z" fill="#979ea8"/><path d="M-1260 367.42h200v34h-200z" fill="#fff"/><path d="M-1260 400.42h200v34h-200z" fill="#e6e6e6"/><path d="M-1260 433.42h200v34h-200z" fill="#fff"/><path d="M-1260 466.42h200v34h-200z" fill="#e6e6e6"/><path d="M-1260 499.42h200v17a16 16 0 0 1-16 16h-168a16 16 0 0 1-16-16z" fill="#fff"/><path d="M-1259.5 367.42h199-199zM-1260 343.42a16 16 0 0 1 16-16h168a16 16 0 0 1 16 16v173a16 16 0 0 1-16 16h-168a16 16 0 0 1-16-16z" stroke="#000" fill="none"/><use xlink:href="#y" transform="matrix(1,0,0,1,-1250,327.42249999999996) translate(61.845703125 27.61432291666667)"/><use xlink:href="#f" transform="matrix(1,0,0,1,-1255,369.92249999999996) translate(87.71822916666667 21.61432291666667)"/><use xlink:href="#z" transform="matrix(1,0,0,1,-1255,402.92249999999996) translate(47.85013020833334 21.61432291666667)"/><use xlink:href="#u" transform="matrix(1,0,0,1,-1255,402.92249999999996) translate(125.77799479166667 21.61432291666667)"/><use xlink:href="#t" transform="matrix(1,0,0,1,-1255,435.92249999999996) translate(51.967317708333326 21.61432291666667)"/><use xlink:href="#u" transform="matrix(1,0,0,1,-1255,435.92249999999996) translate(121.66080729166669 21.61432291666667)"/><use xlink:href="#x" transform="matrix(1,0,0,1,-1255,468.92249999999996) translate(65.94557291666666 21.61432291666667)"/><use xlink:href="#u" transform="matrix(1,0,0,1,-1255,468.92249999999996) translate(107.68255208333335 21.61432291666667)"/><use xlink:href="#A" transform="matrix(1,0,0,1,-1255,501.92249999999996) translate(58.75260416666667 21.61432291666667)"/><use xlink:href="#u" transform="matrix(1,0,0,1,-1255,501.92249999999996) translate(114.87552083333334 21.61432291666667)"/><path d="M-1039.5 483.2h47.5a12 12 0 0 0 12-12V208.34a12 12 0 0 1 12-12h47.5M-1059.5 483.2h20m0 10v-20M-900.5 196.35h-20m0-10v20M-1039.5 516.35h99.5M-1059.5 516.35h20m0 10v-20" stroke="#3a414a" fill="none"/><path d="M-900.5 516.35h-20m10-10v20m-10-10c0 5.52-4.48 10-10 10s-10-4.48-10-10 4.48-10 10-10 10 4.48 10 10z" stroke="#3a414a" fill="#fff"/><path d="M-1300.5 416.86h-27.5a12 12 0 0 0-12 12V583.1a12 12 0 0 0 12 12h366a12 12 0 0 1 12 12v143.66a12 12 0 0 0 12 12h457.5" stroke="#3a414a" fill="none"/><path d="M-1260.72 416.86h-20m20-10l-20 10m20 10l-20-10m0 0c0 5.52-4.48 10-10 10-5.53 0-10-4.48-10-10 0-5.53 4.47-10 10-10 5.52 0 10 4.47 10 10z" stroke="#3a414a" fill="#fff"/><path d="M-460.5 762.76h-20m0-10v20" stroke="#3a414a" fill="none"/><path d="M-900 476a16 16 0 0 1 16-16h168a16 16 0 0 1 16 16v140a16 16 0 0 1-16 16h-168a16 16 0 0 1-16-16z" fill="#fff"/><path d="M-900 476a16 16 0 0 1 16-16h168a16 16 0 0 1 16 16v24h-200z" fill="#979ea8"/><path d="M-900 500h200v34h-200z" fill="#fff"/><path d="M-900 533h200v34h-200z" fill="#e6e6e6"/><path d="M-900 566h200v34h-200z" fill="#fff"/><path d="M-900 599h200v17a16 16 0 0 1-16 16h-168a16 16 0 0 1-16-16z" fill="#e6e6e6"/><path d="M-899.5 500h199-199zM-900 476a16 16 0 0 1 16-16h168a16 16 0 0 1 16 16v140a16 16 0 0 1-16 16h-168a16 16 0 0 1-16-16z" stroke="#000" fill="none"/><use xlink:href="#B" transform="matrix(1,0,0,1,-890,460) translate(42.079166666666666 27.61432291666667)"/><use xlink:href="#s" transform="matrix(1,0,0,1,-890,460) translate(98.20208333333335 27.61432291666667)"/><use xlink:href="#f" transform="matrix(1,0,0,1,-895,502.5) translate(87.71822916666667 21.61432291666667)"/><use xlink:href="#C" transform="matrix(1,0,0,1,-895,535.5) translate(52.871484374999994 21.61432291666667)"/><use xlink:href="#D" transform="matrix(1,0,0,1,-895,535.5) translate(122.56497395833335 21.61432291666667)"/><use xlink:href="#z" transform="matrix(1,0,0,1,-895,568.5) translate(48.75429687500001 21.61432291666667)"/><use xlink:href="#E" transform="matrix(1,0,0,1,-895,568.5) translate(126.68216145833334 21.61432291666667)"/><use xlink:href="#A" transform="matrix(1,0,0,1,-895,601.5) translate(48.8875 21.61432291666667)"/><use xlink:href="#q" transform="matrix(1,0,0,1,-895,601.5) translate(105.01041666666667 21.61432291666667)"/><path d="M-1160 286.92V-28.5a12 12 0 0 1 12-12h776a12 12 0 0 1 12 12v8" stroke="#3a414a" fill="none"/><path d="M-1160 326.7v-20m10 20l-10-20m-10 20l10-20m10-10c0 5.52-4.48 10-10 10s-10-4.48-10-10 4.48-10 10-10 10 4.48 10 10z" stroke="#3a414a" fill="#fff"/><path d="M-360-.5v-20m10 0h-20" stroke="#3a414a" fill="none"/><path d="M-460 199a16 16 0 0 1 16-16h168a16 16 0 0 1 16 16v74a16 16 0 0 1-16 16h-168a16 16 0 0 1-16-16z" fill="#fff"/><path d="M-460 199a16 16 0 0 1 16-16h168a16 16 0 0 1 16 16v24h-200z" fill="#979ea8"/><path d="M-460 223h200v34h-200z" fill="#fff"/><path d="M-460 256h200v17a16 16 0 0 1-16 16h-168a16 16 0 0 1-16-16z" fill="#e6e6e6"/><path d="M-459.5 223h199-199zM-460 199a16 16 0 0 1 16-16h168a16 16 0 0 1 16 16v74a16 16 0 0 1-16 16h-168a16 16 0 0 1-16-16z" stroke="#000" fill="none"/><g><use xlink:href="#F" transform="matrix(1,0,0,1,-450,183) translate(61.97083333333333 27.61432291666667)"/></g><g><use xlink:href="#f" transform="matrix(1,0,0,1,-455,225.5) translate(87.71822916666667 21.61432291666667)"/></g><g><use xlink:href="#G" transform="matrix(1,0,0,1,-455,258.5) translate(72.06888020833334 21.61432291666667)"/></g><path d="M-219.5 595.1h7.5a12 12 0 0 0 12-12V251.5a12 12 0 0 0-12-12h-27.5" stroke="#3a414a" fill="none"/><path d="M-259.28 595.1h20m-20 10l20-10m-20-10l20 10m20 0c0 5.5-4.48 10-10 10-5.53 0-10-4.5-10-10 0-5.53 4.47-10 10-10 5.52 0 10 4.47 10 10z" stroke="#3a414a" fill="#fff"/><path d="M-259.5 239.52h20m0 10v-20" stroke="#3a414a" fill="none"/><defs><path d="M180 0v-1490h270l367 940c28 72 75 218 110 339 35-117 81-264 110-339l362-940h271V0h-187c2-448-5-837 7-1287-157 497-311 829-483 1287H842C666-458 514-784 354-1284c12 438 5 843 7 1284H180" id="H"/><path d="M628 24c-324 0-524-230-524-574 0-343 198-582 503-582 237 0 487 146 487 559v75H286c9 234 145 362 343 362 132 0 231-58 273-172l174 48C1024-91 857 24 628 24zM287-650h624c-17-190-120-322-304-322-192 0-309 151-320 322" id="I"/><path d="M158 0v-1118h175l1 205c55-151 181-225 313-225 147 0 245 90 285 228 53-141 190-228 352-228 194 0 352 125 352 384V0h-181v-749c0-161-105-225-225-225-151 0-243 103-243 244V0H807v-767c0-124-93-207-219-207-131 0-250 92-250 270V0H158" id="J"/><path d="M677 24c-213 0-288-135-325-197h-20V0H158v-1490h180v551h14c37-59 106-193 324-193 279 0 474 222 474 576 0 356-194 580-473 580zm-27-161c209 0 317-186 317-421 0-232-105-413-317-413-206 0-314 166-314 413 0 249 111 421 314 421" id="K"/><path d="M158 0v-1118h174v172h12c41-113 157-188 290-188 26 0 70 2 91 3v181c-11-2-60-10-108-10-161 0-279 109-279 260V0H158" id="L"/><g id="a"><use transform="matrix(0.008072916666666667,0,0,0.008072916666666667,0,0)" xlink:href="#H"/><use transform="matrix(0.008072916666666667,0,0,0.008072916666666667,14.934895833333336,0)" xlink:href="#I"/><use transform="matrix(0.008072916666666667,0,0,0.008072916666666667,24.573958333333337,0)" xlink:href="#J"/><use transform="matrix(0.008072916666666667,0,0,0.008072916666666667,39.05677083333334,0)" xlink:href="#K"/><use transform="matrix(0.008072916666666667,0,0,0.008072916666666667,49.18020833333334,0)" xlink:href="#I"/><use transform="matrix(0.008072916666666667,0,0,0.008072916666666667,58.81927083333334,0)" xlink:href="#L"/></g><path d="M370-1490V0H180v-1490h190" id="M"/><path d="M577 24c-279 0-473-224-473-580 0-354 195-576 474-576 218 0 287 134 324 193h14v-551h180V0H922v-173h-20C865-111 790 24 577 24zm27-161c203 0 314-172 314-421 0-247-108-413-314-413-212 0-317 181-317 413 0 235 108 421 317 421" id="N"/><g id="b"><use transform="matrix(0.008072916666666667,0,0,0.008072916666666667,0,0)" xlink:href="#M"/><use transform="matrix(0.008072916666666667,0,0,0.008072916666666667,4.440104166666667,0)" xlink:href="#N"/></g><path fill="#3a414a" d="M180 0v-1490h224l606 953c40 63 108 177 176 312-27-437-7-821-13-1265h190V0h-226C860-448 622-778 356-1262c27 476 11 792 15 1262H180" id="O"/><path fill="#3a414a" d="M471 26C259 26 90-98 90-318c0-256 228-303 435-329 202-27 287-16 287-108 0-139-79-219-234-219-161 0-248 86-283 164l-173-57c86-203 278-265 451-265 150 0 419 46 419 395V0H815v-152h-12C765-73 660 26 471 26zm31-159c199 0 310-134 310-271v-155c-30 35-226 55-295 64-131 17-246 59-246 186 0 116 97 176 231 176" id="P"/><path fill="#3a414a" d="M158 0v-1118h175l1 205c55-151 181-225 313-225 147 0 245 90 285 228 53-141 190-228 352-228 194 0 352 125 352 384V0h-181v-749c0-161-105-225-225-225-151 0-243 103-243 244V0H807v-767c0-124-93-207-219-207-131 0-250 92-250 270V0H158" id="Q"/><path fill="#3a414a" d="M628 24c-324 0-524-230-524-574 0-343 198-582 503-582 237 0 487 146 487 559v75H286c9 234 145 362 343 362 132 0 231-58 273-172l174 48C1024-91 857 24 628 24zM287-650h624c-17-190-120-322-304-322-192 0-309 151-320 322" id="R"/><g id="c"><use transform="matrix(0.008072916666666667,0,0,0.008072916666666667,0,0)" xlink:href="#O"/><use transform="matrix(0.008072916666666667,0,0,0.008072916666666667,12.456510416666667,0)" xlink:href="#P"/><use transform="matrix(0.008072916666666667,0,0,0.008072916666666667,21.740364583333335,0)" xlink:href="#Q"/><use transform="matrix(0.008072916666666667,0,0,0.008072916666666667,36.22317708333334,0)" xlink:href="#R"/></g><path d="M657 26c-323 0-524-166-541-416h195c15 169 171 246 346 246 202 0 356-106 356-265 5-203-294-238-475-293-239-73-380-191-380-389 0-252 224-419 512-419 294 0 499 171 508 396H992c-17-145-151-228-328-228-193 0-321 102-321 242 0 156 175 211 284 241l149 41c160 44 422 134 422 412 0 244-197 432-541 432" id="S"/><path d="M537 14c-226 0-379-139-379-422v-710h180v695c0 172 97 275 253 275 160 0 281-109 281-300v-670h181V0H879v-209C806-46 684 14 537 14" id="T"/><path d="M338-670V0H158v-1118h173l1 207c72-158 192-221 342-221 226 0 378 139 378 422V0H872v-695c0-172-96-275-252-275-161 0-282 109-282 300" id="U"/><path d="M471 26C259 26 90-98 90-318c0-256 228-303 435-329 202-27 287-16 287-108 0-139-79-219-234-219-161 0-248 86-283 164l-173-57c86-203 278-265 451-265 150 0 419 46 419 395V0H815v-152h-12C765-73 660 26 471 26zm31-159c199 0 310-134 310-271v-155c-30 35-226 55-295 64-131 17-246 59-246 186 0 116 97 176 231 176" id="V"/><g id="d"><use transform="matrix(0.008072916666666667,0,0,0.008072916666666667,0,0)" xlink:href="#S"/><use transform="matrix(0.008072916666666667,0,0,0.008072916666666667,10.607812500000001,0)" xlink:href="#T"/><use transform="matrix(0.008072916666666667,0,0,0.008072916666666667,20.384114583333336,0)" xlink:href="#L"/><use transform="matrix(0.008072916666666667,0,0,0.008072916666666667,26.866666666666667,0)" xlink:href="#U"/><use transform="matrix(0.008072916666666667,0,0,0.008072916666666667,36.63489583333333,0)" xlink:href="#V"/><use transform="matrix(0.008072916666666667,0,0,0.008072916666666667,45.91875,0)" xlink:href="#J"/><use transform="matrix(0.008072916666666667,0,0,0.008072916666666667,60.401562500000004,0)" xlink:href="#I"/></g><path d="M180 0v-1490h528c311 0 458 177 458 395 0 191-114 278-244 313v14c139 9 302 137 302 371 0 225-148 397-499 397H180zm190-168h350c232 0 321-102 321-231 0-149-120-277-311-277H370v508zm0-668h328c160 0 286-101 286-255 0-129-87-231-280-231H370v486" id="W"/><path d="M613 24c-304 0-509-231-509-576 0-350 205-580 509-580 305 0 511 230 511 580 0 345-206 576-511 576zm0-161c226 0 329-195 329-415 0-222-103-419-329-419-223 0-326 196-326 419 0 220 103 415 326 415" id="X"/><path d="M158 0v-1490h180v865h22l478-493h223L593-638 1096 0H865L456-523 338-412V0H158" id="Y"/><path d="M678-1118v154H420V0H240v-964H20v-154h220v-149c0-194 155-293 318-293 85 0 141 18 168 30l-50 154c-19-6-47-17-97-17-111 0-159 58-159 166v109h258" id="Z"/><g id="e"><use transform="matrix(0.008072916666666667,0,0,0.008072916666666667,0,0)" xlink:href="#W"/><use transform="matrix(0.008072916666666667,0,0,0.008072916666666667,10.817708333333334,0)" xlink:href="#X"/><use transform="matrix(0.008072916666666667,0,0,0.008072916666666667,20.731250000000003,0)" xlink:href="#X"/><use transform="matrix(0.008072916666666667,0,0,0.008072916666666667,30.64479166666667,0)" xlink:href="#Y"/><use transform="matrix(0.008072916666666667,0,0,0.008072916666666667,39.71875,0)" xlink:href="#M"/><use transform="matrix(0.008072916666666667,0,0,0.008072916666666667,44.158854166666664,0)" xlink:href="#U"/><use transform="matrix(0.008072916666666667,0,0,0.008072916666666667,53.92708333333333,0)" xlink:href="#Z"/><use transform="matrix(0.008072916666666667,0,0,0.008072916666666667,59.56197916666666,0)" xlink:href="#X"/></g><path fill="#3a414a" d="M370-1490V0H180v-1490h190" id="aa"/><path fill="#3a414a" d="M577 24c-279 0-473-224-473-580 0-354 195-576 474-576 218 0 287 134 324 193h14v-551h180V0H922v-173h-20C865-111 790 24 577 24zm27-161c203 0 314-172 314-421 0-247-108-413-314-413-212 0-317 181-317 413 0 235 108 421 317 421" id="ab"/><g id="f"><use transform="matrix(0.008072916666666667,0,0,0.008072916666666667,0,0)" xlink:href="#aa"/><use transform="matrix(0.008072916666666667,0,0,0.008072916666666667,4.440104166666667,0)" xlink:href="#ab"/></g><path d="M98-1322v-168h1126v168H757V0H567v-1322H98" id="ac"/><path d="M158 0v-1118h180V0H158zm91-1301c-68 0-125-53-125-119s57-119 125-119c69 0 126 53 126 119s-57 119-126 119" id="ad"/><path d="M598-1118v154H368v674c0 100 37 144 132 144 23 0 62-6 92-12L629-6c-37 13-88 20-134 20-193 0-307-107-307-290v-688H20v-154h168v-266h180v266h230" id="ae"/><path d="M338-1490V0H158v-1490h180" id="af"/><g id="g"><use transform="matrix(0.008072916666666667,0,0,0.008072916666666667,0,0)" xlink:href="#ac"/><use transform="matrix(0.008072916666666667,0,0,0.008072916666666667,10.672395833333335,0)" xlink:href="#ad"/><use transform="matrix(0.008072916666666667,0,0,0.008072916666666667,14.676562500000003,0)" xlink:href="#ae"/><use transform="matrix(0.008072916666666667,0,0,0.008072916666666667,20.08541666666667,0)" xlink:href="#af"/><use transform="matrix(0.008072916666666667,0,0,0.008072916666666667,24.089583333333337,0)" xlink:href="#I"/></g><path fill="#3a414a" d="M52 0l541-1490h220L1361 0h-200l-149-416H398L254 0H52zm404-582h497c-103-290-145-390-251-756-108 377-145 460-246 756" id="ag"/><path fill="#3a414a" d="M537 14c-226 0-379-139-379-422v-710h180v695c0 172 97 275 253 275 160 0 281-109 281-300v-670h181V0H879v-209C806-46 684 14 537 14" id="ah"/><path fill="#3a414a" d="M598-1118v154H368v674c0 100 37 144 132 144 23 0 62-6 92-12L629-6c-37 13-88 20-134 20-193 0-307-107-307-290v-688H20v-154h168v-266h180v266h230" id="ai"/><path fill="#3a414a" d="M338-670V0H158v-1490h180v566c73-149 190-208 336-208 226 0 379 139 379 422V0H872v-695c0-172-96-275-252-275-161 0-282 109-282 300" id="aj"/><path fill="#3a414a" d="M613 24c-304 0-509-231-509-576 0-350 205-580 509-580 305 0 511 230 511 580 0 345-206 576-511 576zm0-161c226 0 329-195 329-415 0-222-103-419-329-419-223 0-326 196-326 419 0 220 103 415 326 415" id="ak"/><path fill="#3a414a" d="M158 0v-1118h174v172h12c41-113 157-188 290-188 26 0 70 2 91 3v181c-11-2-60-10-108-10-161 0-279 109-279 260V0H158" id="al"/><g id="h"><use transform="matrix(0.008072916666666667,0,0,0.008072916666666667,0,0)" xlink:href="#ag"/><use transform="matrix(0.008072916666666667,0,0,0.008072916666666667,11.407031250000001,0)" xlink:href="#ah"/><use transform="matrix(0.008072916666666667,0,0,0.008072916666666667,21.183333333333337,0)" xlink:href="#ai"/><use transform="matrix(0.008072916666666667,0,0,0.008072916666666667,26.592187500000005,0)" xlink:href="#aj"/><use transform="matrix(0.008072916666666667,0,0,0.008072916666666667,36.36848958333334,0)" xlink:href="#ak"/><use transform="matrix(0.008072916666666667,0,0,0.008072916666666667,46.28203125000001,0)" xlink:href="#al"/></g><path d="M180 0v-1490h510c348 0 508 209 508 474 0 266-160 477-507 477H370V0H180zm190-706h312c236 0 327-133 327-310 0-176-91-307-329-307H370v617" id="am"/><g id="i"><use transform="matrix(0.008072916666666667,0,0,0.008072916666666667,0,0)" xlink:href="#am"/><use transform="matrix(0.008072916666666667,0,0,0.008072916666666667,10.559375000000001,0)" xlink:href="#L"/><use transform="matrix(0.008072916666666667,0,0,0.008072916666666667,17.041927083333334,0)" xlink:href="#ad"/><use transform="matrix(0.008072916666666667,0,0,0.008072916666666667,21.04609375,0)" xlink:href="#U"/><use transform="matrix(0.008072916666666667,0,0,0.008072916666666667,30.81432291666667,0)" xlink:href="#ae"/></g><path fill="#3a414a" d="M180 0v-1490h510c348 0 508 209 508 474 0 266-160 477-507 477H370V0H180zm190-706h312c236 0 327-133 327-310 0-176-91-307-329-307H370v617" id="an"/><path fill="#3a414a" d="M158 0v-1118h180V0H158zm91-1301c-68 0-125-53-125-119s57-119 125-119c69 0 126 53 126 119s-57 119-126 119" id="ao"/><path fill="#3a414a" d="M338-670V0H158v-1118h173l1 207c72-158 192-221 342-221 226 0 378 139 378 422V0H872v-695c0-172-96-275-252-275-161 0-282 109-282 300" id="ap"/><g id="j"><use transform="matrix(0.008072916666666667,0,0,0.008072916666666667,0,0)" xlink:href="#an"/><use transform="matrix(0.008072916666666667,0,0,0.008072916666666667,10.559375000000001,0)" xlink:href="#al"/><use transform="matrix(0.008072916666666667,0,0,0.008072916666666667,17.041927083333334,0)" xlink:href="#ao"/><use transform="matrix(0.008072916666666667,0,0,0.008072916666666667,21.04609375,0)" xlink:href="#ap"/><use transform="matrix(0.008072916666666667,0,0,0.008072916666666667,30.81432291666667,0)" xlink:href="#ai"/></g><path fill="#3a414a" d="M600 0v-610L52-1490h220l295 481c50 82 90 150 130 243 40-96 80-164 128-243l294-481h219L790-610V0H600" id="aq"/><g id="k"><use transform="matrix(0.008072916666666667,0,0,0.008072916666666667,0,0)" xlink:href="#aq"/><use transform="matrix(0.008072916666666667,0,0,0.008072916666666667,9.953906250000001,0)" xlink:href="#R"/><use transform="matrix(0.008072916666666667,0,0,0.008072916666666667,19.754427083333336,0)" xlink:href="#P"/><use transform="matrix(0.008072916666666667,0,0,0.008072916666666667,29.038281250000004,0)" xlink:href="#al"/></g><path fill="#3a414a" d="M180 0v-1490h190v1322h690V0H180" id="ar"/><path fill="#3a414a" d="M611 442c-248 0-391-105-460-228l146-94c47 65 117 165 314 165 178 0 307-82 307-266v-224h-17C863-141 792-18 576-18c-268 0-472-195-472-546 0-346 197-568 476-568 216 0 288 133 326 193h17v-179h175V29c0 289-215 413-487 413zm-5-620c203 0 314-146 314-390 0-237-108-403-314-403-213 0-319 180-319 403 0 230 109 390 319 390" id="as"/><g id="l"><use transform="matrix(0.008072916666666667,0,0,0.008072916666666667,0,0)" xlink:href="#ar"/><use transform="matrix(0.008072916666666667,0,0,0.008072916666666667,9.348437500000001,0)" xlink:href="#P"/><use transform="matrix(0.008072916666666667,0,0,0.008072916666666667,18.632291666666667,0)" xlink:href="#ap"/><use transform="matrix(0.008072916666666667,0,0,0.008072916666666667,28.400520833333335,0)" xlink:href="#as"/><use transform="matrix(0.008072916666666667,0,0,0.008072916666666667,38.540104166666666,0)" xlink:href="#ah"/><use transform="matrix(0.008072916666666667,0,0,0.008072916666666667,48.31640625,0)" xlink:href="#P"/><use transform="matrix(0.008072916666666667,0,0,0.008072916666666667,57.60026041666667,0)" xlink:href="#as"/><use transform="matrix(0.008072916666666667,0,0,0.008072916666666667,67.73984375,0)" xlink:href="#R"/></g><path fill="#3a414a" d="M789 20c-398 0-667-293-667-764 0-473 273-766 655-766 315 0 558 198 612 487h-196c-61-191-204-311-415-311-262 0-471 207-471 590 0 380 208 588 482 588 249 0 420-165 425-427H828v-166h572v163c0 370-256 606-611 606" id="at"/><g id="m"><use transform="matrix(0.008072916666666667,0,0,0.008072916666666667,0,0)" xlink:href="#at"/><use transform="matrix(0.008072916666666667,0,0,0.008072916666666667,12.335416666666667,0)" xlink:href="#R"/><use transform="matrix(0.008072916666666667,0,0,0.008072916666666667,21.97447916666667,0)" xlink:href="#ap"/><use transform="matrix(0.008072916666666667,0,0,0.008072916666666667,31.742708333333336,0)" xlink:href="#al"/><use transform="matrix(0.008072916666666667,0,0,0.008072916666666667,37.69244791666667,0)" xlink:href="#R"/></g><path d="M481 0L54-1118h197c107 314 236 620 325 951 87-331 217-637 324-951h197L670 0H481" id="au"/><path d="M140 405l46-156c120 36 205 19 263-150l32-93L54-1118h197c107 313 237 620 324 950 87-331 219-637 326-950h196L606 167c-68 178-176 259-334 259-64 0-113-12-132-21" id="av"/><g id="n"><use transform="matrix(0.008072916666666667,0,0,0.008072916666666667,0,0)" xlink:href="#M"/><use transform="matrix(0.008072916666666667,0,0,0.008072916666666667,4.440104166666667,0)" xlink:href="#U"/><use transform="matrix(0.008072916666666667,0,0,0.008072916666666667,13.966145833333336,0)" xlink:href="#au"/><use transform="matrix(0.008072916666666667,0,0,0.008072916666666667,22.935156250000006,0)" xlink:href="#I"/><use transform="matrix(0.008072916666666667,0,0,0.008072916666666667,32.57421875000001,0)" xlink:href="#U"/><use transform="matrix(0.008072916666666667,0,0,0.008072916666666667,42.34244791666667,0)" xlink:href="#ae"/><use transform="matrix(0.008072916666666667,0,0,0.008072916666666667,47.58984375,0)" xlink:href="#X"/><use transform="matrix(0.008072916666666667,0,0,0.008072916666666667,57.50338541666667,0)" xlink:href="#L"/><use transform="matrix(0.008072916666666667,0,0,0.008072916666666667,63.9859375,0)" xlink:href="#av"/></g><g id="o"><use transform="matrix(0.008072916666666667,0,0,0.008072916666666667,0,0)" xlink:href="#W"/><use transform="matrix(0.008072916666666667,0,0,0.008072916666666667,10.817708333333334,0)" xlink:href="#X"/><use transform="matrix(0.008072916666666667,0,0,0.008072916666666667,20.731250000000003,0)" xlink:href="#X"/><use transform="matrix(0.008072916666666667,0,0,0.008072916666666667,30.64479166666667,0)" xlink:href="#Y"/><use transform="matrix(0.008072916666666667,0,0,0.008072916666666667,39.71875,0)" xlink:href="#M"/><use transform="matrix(0.008072916666666667,0,0,0.008072916666666667,44.158854166666664,0)" xlink:href="#N"/></g><path fill="#3a414a" d="M613 24c-304 0-509-231-509-576 0-350 205-580 509-580 216 0 392 114 453 309l-173 49c-33-115-133-197-280-197-223 0-326 196-326 419 0 220 103 415 326 415 150 0 252-85 285-206l172 49C1010-95 832 24 613 24" id="aw"/><path fill="#3a414a" d="M1096 418H916v-591h-14C865-111 790 24 577 24c-279 0-473-224-473-580 0-354 195-576 474-576 218 0 287 134 324 193h20v-179h174V418zM604-137c203 0 314-172 314-421 0-247-108-413-314-413-212 0-317 181-317 413 0 235 108 421 317 421" id="ax"/><g id="p"><use transform="matrix(0.008072916666666667,0,0,0.008072916666666667,0,0)" xlink:href="#ag"/><use transform="matrix(0.008072916666666667,0,0,0.008072916666666667,11.407031250000001,0)" xlink:href="#aw"/><use transform="matrix(0.008072916666666667,0,0,0.008072916666666667,20.852343750000003,0)" xlink:href="#ax"/><use transform="matrix(0.008072916666666667,0,0,0.008072916666666667,30.975781250000004,0)" xlink:href="#ah"/><use transform="matrix(0.008072916666666667,0,0,0.008072916666666667,40.75208333333334,0)" xlink:href="#ao"/><use transform="matrix(0.008072916666666667,0,0,0.008072916666666667,44.75625000000001,0)" xlink:href="#al"/><use transform="matrix(0.008072916666666667,0,0,0.008072916666666667,51.23880208333334,0)" xlink:href="#ao"/><use transform="matrix(0.008072916666666667,0,0,0.008072916666666667,55.24296875000001,0)" xlink:href="#ap"/><use transform="matrix(0.008072916666666667,0,0,0.008072916666666667,65.01119791666667,0)" xlink:href="#as"/></g><path fill="#3a414a" d="M645 0H180v-1490h484c435 0 692 280 692 742 0 466-257 748-711 748zM370-168h263c363 0 539-218 539-580 0-358-176-574-521-574H370v1154" id="ay"/><g id="q"><use transform="matrix(0.008072916666666667,0,0,0.008072916666666667,0,0)" xlink:href="#ay"/><use transform="matrix(0.008072916666666667,0,0,0.008072916666666667,11.931770833333335,0)" xlink:href="#P"/><use transform="matrix(0.008072916666666667,0,0,0.008072916666666667,21.215625000000003,0)" xlink:href="#ai"/><use transform="matrix(0.008072916666666667,0,0,0.008072916666666667,26.46302083333334,0)" xlink:href="#R"/></g><g id="r"><use transform="matrix(0.008072916666666667,0,0,0.008072916666666667,0,0)" xlink:href="#ac"/><use transform="matrix(0.008072916666666667,0,0,0.008072916666666667,9.461458333333335,0)" xlink:href="#V"/><use transform="matrix(0.008072916666666667,0,0,0.008072916666666667,18.745312500000004,0)" xlink:href="#Y"/><use transform="matrix(0.008072916666666667,0,0,0.008072916666666667,27.44791666666667,0)" xlink:href="#I"/></g><g id="s"><use transform="matrix(0.008072916666666667,0,0,0.008072916666666667,0,0)" xlink:href="#W"/><use transform="matrix(0.008072916666666667,0,0,0.008072916666666667,10.817708333333334,0)" xlink:href="#X"/><use transform="matrix(0.008072916666666667,0,0,0.008072916666666667,20.731250000000003,0)" xlink:href="#X"/><use transform="matrix(0.008072916666666667,0,0,0.008072916666666667,30.64479166666667,0)" xlink:href="#Y"/></g><path fill="#3a414a" d="M180 0v-1490h270l367 940c28 72 75 218 110 339 35-117 81-264 110-339l362-940h271V0h-187c2-448-5-837 7-1287-157 497-311 829-483 1287H842C666-458 514-784 354-1284c12 438 5 843 7 1284H180" id="az"/><path fill="#3a414a" d="M677 24c-213 0-288-135-325-197h-20V0H158v-1490h180v551h14c37-59 106-193 324-193 279 0 474 222 474 576 0 356-194 580-473 580zm-27-161c209 0 317-186 317-421 0-232-105-413-317-413-206 0-314 166-314 413 0 249 111 421 314 421" id="aA"/><g id="t"><use transform="matrix(0.008072916666666667,0,0,0.008072916666666667,0,0)" xlink:href="#az"/><use transform="matrix(0.008072916666666667,0,0,0.008072916666666667,14.934895833333336,0)" xlink:href="#R"/><use transform="matrix(0.008072916666666667,0,0,0.008072916666666667,24.573958333333337,0)" xlink:href="#Q"/><use transform="matrix(0.008072916666666667,0,0,0.008072916666666667,39.05677083333334,0)" xlink:href="#aA"/><use transform="matrix(0.008072916666666667,0,0,0.008072916666666667,49.18020833333334,0)" xlink:href="#R"/><use transform="matrix(0.008072916666666667,0,0,0.008072916666666667,58.81927083333334,0)" xlink:href="#al"/></g><g id="u"><use transform="matrix(0.008072916666666667,0,0,0.008072916666666667,0,0)" xlink:href="#aa"/><use transform="matrix(0.008072916666666667,0,0,0.008072916666666667,4.440104166666667,0)" xlink:href="#ay"/></g><g id="v"><use transform="matrix(0.008072916666666667,0,0,0.008072916666666667,0,0)" xlink:href="#M"/><use transform="matrix(0.008072916666666667,0,0,0.008072916666666667,4.440104166666667,0)" xlink:href="#U"/><use transform="matrix(0.008072916666666667,0,0,0.008072916666666667,13.966145833333336,0)" xlink:href="#au"/><use transform="matrix(0.008072916666666667,0,0,0.008072916666666667,22.935156250000006,0)" xlink:href="#I"/><use transform="matrix(0.008072916666666667,0,0,0.008072916666666667,32.57421875000001,0)" xlink:href="#U"/><use transform="matrix(0.008072916666666667,0,0,0.008072916666666667,42.34244791666667,0)" xlink:href="#ae"/><use transform="matrix(0.008072916666666667,0,0,0.008072916666666667,47.58984375,0)" xlink:href="#X"/><use transform="matrix(0.008072916666666667,0,0,0.008072916666666667,57.50338541666667,0)" xlink:href="#L"/><use transform="matrix(0.008072916666666667,0,0,0.008072916666666667,63.9859375,0)" xlink:href="#av"/></g><path d="M645 0H180v-1490h484c435 0 692 280 692 742 0 466-257 748-711 748zM370-168h263c363 0 539-218 539-580 0-358-176-574-521-574H370v1154" id="aB"/><g id="w"><use transform="matrix(0.008072916666666667,0,0,0.008072916666666667,0,0)" xlink:href="#M"/><use transform="matrix(0.008072916666666667,0,0,0.008072916666666667,4.440104166666667,0)" xlink:href="#aB"/></g><path fill="#3a414a" d="M98-1322v-168h1126v168H757V0H567v-1322H98" id="aC"/><path fill="#3a414a" d="M158 0v-1490h180v865h22l478-493h223L593-638 1096 0H865L456-523 338-412V0H158" id="aD"/><g id="x"><use transform="matrix(0.008072916666666667,0,0,0.008072916666666667,0,0)" xlink:href="#aC"/><use transform="matrix(0.008072916666666667,0,0,0.008072916666666667,9.461458333333335,0)" xlink:href="#P"/><use transform="matrix(0.008072916666666667,0,0,0.008072916666666667,18.745312500000004,0)" xlink:href="#aD"/><use transform="matrix(0.008072916666666667,0,0,0.008072916666666667,27.44791666666667,0)" xlink:href="#R"/></g><path d="M409 0L70-1118h191c89 329 165 560 243 925 75-353 154-601 240-925h192c85 325 161 564 235 922 77-354 157-598 244-922h191L1267 0h-179c-86-307-176-590-250-913C763-588 675-308 588 0H409" id="aE"/><g id="y"><use transform="matrix(0.008072916666666667,0,0,0.008072916666666667,0,0)" xlink:href="#W"/><use transform="matrix(0.008072916666666667,0,0,0.008072916666666667,10.817708333333334,0)" xlink:href="#X"/><use transform="matrix(0.008072916666666667,0,0,0.008072916666666667,20.731250000000003,0)" xlink:href="#L"/><use transform="matrix(0.008072916666666667,0,0,0.008072916666666667,27.213802083333338,0)" xlink:href="#L"/><use transform="matrix(0.008072916666666667,0,0,0.008072916666666667,33.16354166666667,0)" xlink:href="#X"/><use transform="matrix(0.008072916666666667,0,0,0.008072916666666667,42.778385416666666,0)" xlink:href="#aE"/></g><path fill="#3a414a" d="M481 0L54-1118h197c107 314 236 620 325 951 87-331 217-637 324-951h197L670 0H481" id="aF"/><path fill="#3a414a" d="M140 405l46-156c120 36 205 19 263-150l32-93L54-1118h197c107 313 237 620 324 950 87-331 219-637 326-950h196L606 167c-68 178-176 259-334 259-64 0-113-12-132-21" id="aG"/><g id="z"><use transform="matrix(0.008072916666666667,0,0,0.008072916666666667,0,0)" xlink:href="#aa"/><use transform="matrix(0.008072916666666667,0,0,0.008072916666666667,4.440104166666667,0)" xlink:href="#ap"/><use transform="matrix(0.008072916666666667,0,0,0.008072916666666667,13.966145833333336,0)" xlink:href="#aF"/><use transform="matrix(0.008072916666666667,0,0,0.008072916666666667,22.935156250000006,0)" xlink:href="#R"/><use transform="matrix(0.008072916666666667,0,0,0.008072916666666667,32.57421875000001,0)" xlink:href="#ap"/><use transform="matrix(0.008072916666666667,0,0,0.008072916666666667,42.34244791666667,0)" xlink:href="#ai"/><use transform="matrix(0.008072916666666667,0,0,0.008072916666666667,47.58984375,0)" xlink:href="#ak"/><use transform="matrix(0.008072916666666667,0,0,0.008072916666666667,57.50338541666667,0)" xlink:href="#al"/><use transform="matrix(0.008072916666666667,0,0,0.008072916666666667,63.9859375,0)" xlink:href="#aG"/></g><path fill="#3a414a" d="M180 0v-1490h510c348 0 508 194 508 460 0 198-88 351-276 417L1256 0h-220L726-579c-117 2-238 0-356 1V0H180zm190-747h312c235 0 327-108 327-283 0-177-92-293-329-293H370v576" id="aH"/><g id="A"><use transform="matrix(0.008072916666666667,0,0,0.008072916666666667,0,0)" xlink:href="#aH"/><use transform="matrix(0.008072916666666667,0,0,0.008072916666666667,10.397916666666667,0)" xlink:href="#R"/><use transform="matrix(0.008072916666666667,0,0,0.008072916666666667,20.03697916666667,0)" xlink:href="#ai"/><use transform="matrix(0.008072916666666667,0,0,0.008072916666666667,25.445833333333336,0)" xlink:href="#ah"/><use transform="matrix(0.008072916666666667,0,0,0.008072916666666667,35.222135416666674,0)" xlink:href="#al"/><use transform="matrix(0.008072916666666667,0,0,0.008072916666666667,41.704687500000006,0)" xlink:href="#ap"/></g><path d="M180 0v-1490h510c348 0 508 194 508 460 0 198-88 351-276 417L1256 0h-220L726-579c-117 2-238 0-356 1V0H180zm190-747h312c235 0 327-108 327-283 0-177-92-293-329-293H370v576" id="aI"/><g id="B"><use transform="matrix(0.008072916666666667,0,0,0.008072916666666667,0,0)" xlink:href="#aI"/><use transform="matrix(0.008072916666666667,0,0,0.008072916666666667,10.397916666666667,0)" xlink:href="#I"/><use transform="matrix(0.008072916666666667,0,0,0.008072916666666667,20.03697916666667,0)" xlink:href="#ae"/><use transform="matrix(0.008072916666666667,0,0,0.008072916666666667,25.445833333333336,0)" xlink:href="#T"/><use transform="matrix(0.008072916666666667,0,0,0.008072916666666667,35.222135416666674,0)" xlink:href="#L"/><use transform="matrix(0.008072916666666667,0,0,0.008072916666666667,41.704687500000006,0)" xlink:href="#U"/></g><g id="C"><use transform="matrix(0.008072916666666667,0,0,0.008072916666666667,0,0)" xlink:href="#H"/><use transform="matrix(0.008072916666666667,0,0,0.008072916666666667,14.934895833333336,0)" xlink:href="#I"/><use transform="matrix(0.008072916666666667,0,0,0.008072916666666667,24.573958333333337,0)" xlink:href="#J"/><use transform="matrix(0.008072916666666667,0,0,0.008072916666666667,39.05677083333334,0)" xlink:href="#K"/><use transform="matrix(0.008072916666666667,0,0,0.008072916666666667,49.18020833333334,0)" xlink:href="#I"/><use transform="matrix(0.008072916666666667,0,0,0.008072916666666667,58.81927083333334,0)" xlink:href="#L"/></g><g id="D"><use transform="matrix(0.008072916666666667,0,0,0.008072916666666667,0,0)" xlink:href="#M"/><use transform="matrix(0.008072916666666667,0,0,0.008072916666666667,4.440104166666667,0)" xlink:href="#N"/></g><g id="E"><use transform="matrix(0.008072916666666667,0,0,0.008072916666666667,0,0)" xlink:href="#aa"/><use transform="matrix(0.008072916666666667,0,0,0.008072916666666667,4.440104166666667,0)" xlink:href="#ab"/></g><path d="M789 20c-398 0-667-293-667-764 0-473 273-766 655-766 315 0 558 198 612 487h-196c-61-191-204-311-415-311-262 0-471 207-471 590 0 380 208 588 482 588 249 0 420-165 425-427H828v-166h572v163c0 370-256 606-611 606" id="aJ"/><path d="M538 24C308 24 148-78 108-271l171-41c32 123 123 178 257 178 156 0 256-77 256-169 0-77-54-128-164-154l-186-44c-203-48-300-148-300-305 0-192 176-326 414-326 230 0 351 112 402 269l-163 42c-31-80-94-158-238-158-133 0-233 69-233 162 0 83 57 129 188 160l169 40c203 48 298 149 298 302 0 196-179 339-441 339" id="aK"/><g id="F"><use transform="matrix(0.008072916666666667,0,0,0.008072916666666667,0,0)" xlink:href="#aJ"/><use transform="matrix(0.008072916666666667,0,0,0.008072916666666667,12.335416666666667,0)" xlink:href="#I"/><use transform="matrix(0.008072916666666667,0,0,0.008072916666666667,21.97447916666667,0)" xlink:href="#U"/><use transform="matrix(0.008072916666666667,0,0,0.008072916666666667,31.742708333333336,0)" xlink:href="#L"/><use transform="matrix(0.008072916666666667,0,0,0.008072916666666667,37.69244791666667,0)" xlink:href="#I"/><use transform="matrix(0.008072916666666667,0,0,0.008072916666666667,47.331510416666674,0)" xlink:href="#aK"/></g><path d="M180 0v-1490h224l606 953c40 63 108 177 176 312-27-437-7-821-13-1265h190V0h-226C860-448 622-778 356-1262c27 476 11 792 15 1262H180" id="aL"/><g id="G"><use transform="matrix(0.008072916666666667,0,0,0.008072916666666667,0,0)" xlink:href="#aL"/><use transform="matrix(0.008072916666666667,0,0,0.008072916666666667,12.456510416666667,0)" xlink:href="#V"/><use transform="matrix(0.008072916666666667,0,0,0.008072916666666667,21.740364583333335,0)" xlink:href="#J"/><use transform="matrix(0.008072916666666667,0,0,0.008072916666666667,36.22317708333334,0)" xlink:href="#I"/></g></defs></g></svg>